<svg width="34" height="34" viewBox="0 0 34 34" fill="none" xmlns="http://www.w3.org/2000/svg">
<g clip-path="url(#clip0_7_325)">
<path d="M27.625 17.8103L17 28.3333L6.37498 17.8103C5.67416 17.1284 5.12214 16.3087 4.75367 15.4029C4.3852 14.4971 4.20827 13.5249 4.23402 12.5473C4.25977 11.5698 4.48764 10.6082 4.90329 9.72307C5.31893 8.83793 5.91334 8.04845 6.64908 7.40433C7.38483 6.76021 8.24598 6.2754 9.1783 5.98044C10.1106 5.68548 11.0939 5.58675 12.0663 5.69048C13.0386 5.7942 13.9789 6.09813 14.8281 6.58312C15.6772 7.06812 16.4167 7.72367 17 8.50851C17.5858 7.72937 18.3262 7.07954 19.1747 6.5997C20.0232 6.11985 20.9617 5.82031 21.9313 5.71983C22.9009 5.61934 23.8808 5.72008 24.8097 6.01573C25.7386 6.31138 26.5965 6.79558 27.3297 7.43802C28.0628 8.08047 28.6555 8.86733 29.0706 9.74935C29.4856 10.6314 29.7142 11.5896 29.7419 12.564C29.7696 13.5384 29.5959 14.5081 29.2317 15.4123C28.8674 16.3165 28.3204 17.1358 27.625 17.8188" fill="white"/>
<path d="M27.625 17.8103L17 28.3333L6.37498 17.8103C5.67416 17.1284 5.12214 16.3087 4.75367 15.4029C4.3852 14.4971 4.20827 13.5249 4.23402 12.5473C4.25977 11.5698 4.48764 10.6082 4.90329 9.72307C5.31893 8.83793 5.91334 8.04845 6.64908 7.40433C7.38483 6.76021 8.24598 6.2754 9.1783 5.98044C10.1106 5.68548 11.0939 5.58675 12.0663 5.69048C13.0386 5.7942 13.9789 6.09813 14.8281 6.58312C15.6772 7.06812 16.4167 7.72367 17 8.50851C17.5858 7.72937 18.3262 7.07954 19.1747 6.5997C20.0232 6.11985 20.9617 5.82031 21.9313 5.71983C22.9009 5.61934 23.8808 5.72008 24.8097 6.01573C25.7386 6.31138 26.5965 6.79558 27.3297 7.43802C28.0628 8.08047 28.6555 8.86733 29.0706 9.74935C29.4856 10.6314 29.7142 11.5896 29.7419 12.564C29.7696 13.5384 29.5959 14.5081 29.2317 15.4123C28.8674 16.3165 28.3204 17.1358 27.625 17.8188" stroke="black" stroke-width="2" stroke-linecap="round" stroke-linejoin="round"/>
</g>
<defs>
<clipPath id="clip0_7_325">
<rect width="34" height="34" fill="white"/>
</clipPath>
</defs>
</svg>
