<?xml version="1.0" encoding="UTF-8"?>
<svg id="Layer_1" xmlns="http://www.w3.org/2000/svg" version="1.1" viewBox="0 0 200 200">
  <!-- Generator: Adobe Illustrator 29.6.1, SVG Export Plug-In . SVG Version: 2.1.1 Build 9)  -->
  <defs>
    <style>
      .st0 {
        fill: #613419;
      }

      .st1 {
        fill: #010101;
      }

      .st2 {
        fill: #0f3019;
      }

      .st3 {
        fill: #1d1206;
      }

      .st4 {
        fill: #a98876;
      }

      .st5 {
        fill: #102f19;
      }

      .st6 {
        fill: #172a1a;
      }

      .st7 {
        fill: #7192c7;
      }

      .st8 {
        fill: #10331b;
      }

      .st9 {
        fill: #020202;
      }

      .st10 {
        fill: #060403;
      }

      .st11 {
        fill: #08180d;
      }

      .st12 {
        fill: #a95120;
      }

      .st13 {
        fill: #1c381d;
      }

      .st14 {
        fill: #060302;
      }

      .st15 {
        fill: #f39a22;
      }

      .st16 {
        fill: #164725;
      }

      .st17 {
        fill: #022157;
      }

      .st18 {
        fill: #143a1f;
      }

      .st19 {
        fill: #021f51;
      }

      .st20 {
        fill: #080503;
      }

      .st21 {
        fill: #050302;
      }

      .st22 {
        fill: #f49b22;
      }

      .st23 {
        fill: #11301a;
      }

      .st24 {
        fill: #070403;
      }

      .st25 {
        fill: #d86729;
      }

      .st26 {
        fill: #7192c8;
      }

      .st27 {
        fill: #040302;
      }

      .st28 {
        fill: #050303;
      }

      .st29 {
        fill: #703c1c;
      }

      .st30 {
        fill: #13391e;
      }

      .st31 {
        fill: #133a1f;
      }

      .st32 {
        fill: #070503;
      }

      .st33 {
        fill: #a98875;
      }

      .st34 {
        fill: #713c1c;
      }

      .st35 {
        fill: #f59b22;
      }

      .st36 {
        fill: #f29922;
      }

      .st37 {
        fill: #021b46;
      }

      .st38 {
        fill: #164825;
      }

      .st39 {
        fill: #10321b;
      }
    </style>
  </defs>
  <path class="st9" d="M121.81,28.75c1.98.06,3.98-.08,5.97-.01,5.71.19,11.49.76,17.21,1.03,8.86.42,18.7-.12,27.31,2.09,3.9,1,6.66,1.88,7.05,6.38.78,9.05-.17,19.86-.02,29.16.04,2.2.6,4.59.25,6.81-.25,1.57-4.28,3.14-5.56,4.07,1.34,1.57,4.17,3,5.01,4.88.79,1.76.25,10.27.3,12.87.36,19.13.93,38.44.26,57.53-.2,5.81,1.32,12.31-5.06,15.45s-19.03,4.61-26.41,6.03c-8.9,1.71-17.76,3.79-26.81,4.48.08.47.25.89.27,1.38.16,4.57.3,10.47,0,14.97-.03.5-.19,2.14-.3,2.49-.33,1.01-5.83.87-6.93.93-10.94.59-23.57,1.12-34.46.25-2.38-.19-3.17-.4-3.42-2.91-.42-4.24-.39-9.65-.27-13.95.02-.76.63-2.87.03-3.3-.23-.16-3.7-.3-4.42-.4-12.33-1.66-26.08-4.09-38.18-6.93-4.26-1-10.58-3.11-12.16-7.6-1.74-4.93-.97-14.34-.99-19.78-.1-22.12-.4-44.51-.25-66.62.01-2.1-.39-8.92.3-10.34.88-1.82,7.13-4.99,8.81-6.65-2.05-3.01-7.98-4.55-8.36-8.36-.36-3.54-.75-12.11.11-15.34,1.09-4.11,6.14-5.99,9.92-6.55,9.21-1.36,19.77-.99,29.12-1.79,5.25-.44,10.54-.48,15.83-.77.05-1.73-.07-3.48-.01-5.21.04-1.28.26-2.77.28-4.03.05-2.67-.79-8.75.89-10.76.79-.94,5.63-3.31,6.89-3.5,1.77-.28,1.92.32,3.36.95.44-2.22,3.26-3.52,5.27-3.98,7.33-1.65,19.12-.05,25.82,3.42,4.17,2.16,3.15,3.93,3.38,8.03.03.49.24.97.26,1.51.18,4.61.03,9.49-.26,14.07Z"/>
  <path class="st38" d="M78.99,182.57c-.24,4.65-.39,9.38-.27,14.08.03.98.75,2.06-.59,1.6-.98-.33-.61-3.92-.67-4.91-.03-.5-.24-.97-.26-1.51-.17-4.49-.02-9.09.25-13.55-6.94-.72-13.92-1.7-20.81-2.88-6.55-1.12-13.53-2.39-20.02-3.8-4.24-.92-12.4-2.65-14.08-7.2-.71-1.93-.98-6.14-1.08-8.3-.87-19.22.08-39.29.02-58.53.04-8.81-1.16-18.07-.51-26.87.04-.56.26-2.46.49-2.81,2.18-1.72,4.58-3.18,6.72-4.93.51-.42,2.17-1.58,2.17-2.14,0-1.5-7.43-5.28-8.14-7.08-.26-.67-.45-2.73-.5-3.56-.2-3.31-.35-10.73.82-13.64,1.69-4.21,9.34-4.92,13.28-5.22,6.79-.52,13.95-.68,20.75-1.09,6.61-.4,13.29-.6,19.89-1.34l.52-1c.48-5.02-.17-10.53.25-15.47.08-.94.37-2.66.89-3.41.57-.81,5.63-3.27,6.61-3.3,1.12-.04,2.27,1.88,2.75,1.77,1.25-3.7,4.79-4.78,8.37-5.06,6.81-.54,14.62.47,20.89,3.17,2.64,1.14,3.54,1.18,3.81,4.3.5,5.98-.45,13.31.25,19.01.03.27-.01.58.25.76.16.11,3.35.35,3.93.37,7.7.37,15.38.43,23.08.74,7.94.32,16.56.02,24.3,2.06,3,.79,5.33,1.51,5.95,4.94.2,11.9-.39,23.82.53,35.68-.23,1.92-4.79,3.27-6.08,4.59-.19.78,4.98,4.18,5.44,5.19.13.29.35,3.27.38,3.93.59,11.68-.26,23.57,0,35.22.21,9.29.33,18.56.25,27.86-.08,8.17,1.92,16.01-7.73,18.87-7.99,2.37-16.34,3.36-24.49,4.9-8.32,1.58-16.58,3.5-24.98,4.67-.91.13-.81-.67-1.32.58.29.52.65,1.88,0,2.15.12,0,.24.02.34.08.33.18.25,7.18.17,7.55.07.4-.1.62-.51.74l.51.67c.15,1.61.12,3.8.05,5.43,0,.13-.14.25-.31.36-.71.47.36,1.52-.42,1.74l-6.17.29c0-1.26.01-2.54,0-3.8l-.51-.66-.09-8.08c.65-4.95-4.04-5.01-7.51-4.94-.08.57-.25.74-.51.51-.46.13-.93-.07-1.41-.59-5-1.53-10.82-1.24-15.98-.6l-.6-.33-.5.46c-.55,1.22-.89,1.24-1.02.05-.18-.02-.35-.19-.51-.51-.24.2-.57.09-.51-.25-1.75-.27-3.89-.38-5.57.25.1,1.02.01,1.95-.25,2.79Z"/>
  <path class="st34" d="M99.51,199.04c-4.05.18-8.74.13-12.81,0-1.61-.05-4.37-.05-5.8-.28-.33-.05-.64-.16-.91-.36-.24-1.24-.44-2.74-.51-4.05-.23-4.47.1-9.13.37-13.58,1.55-.64,3.28-.52,4.92-.45.52.33.21,4.52.28,5.43.02.33.26.57.26.61l.52.19.13,2.78c1.46,5.83,1.48-3.23,1.09-4.95-.2-1.57.07-2.92.81-4.06,1.37-1.15,13.79-.68,15.53.15.81.39,1.3.63,1.42,1.64.51,5.44.27,11.19.02,16.67-1.69.48-3.72.6-5.32.26Z"/>
  <path class="st1" d="M105.34,181.3c.53,2.95.61,6.15.25,9.12.1,1.13.27,1.55.51,1.27-.41-3.54-.62-7.39-.25-10.9.99-.91,3.01-.49,4.36-.18,1.83.41,3.26,1.06,3.49,3.1.35,3.1.23,7.55.25,10.77-.72.96-.13,2.89-.14,4.07.15.24,2.47-.04,3.05-.01.31.01.94-.19.88.25-4.2.49-8.55.19-12.79.32-.74.02-1.45.42-2.28.45-3.16.12-6.35-.11-9.51-.01-.06-.44.57-.24.88-.25,1.77-.07,3.78.27,5.45-.25.03,0,.29-.24.61-.26.88-.05,4.18.34,4.42-.41-.15-4.03.23-8.1.05-12.14-.05-1.08-.13-3.06-.28-4.03-.14-.89-.56-1.21-1.4-1.39-3.01-.64-9.55-.78-12.66-.54-2.16.17-2.49.18-2.66,2.41-.19,2.48.39,5.76.12,8.03-.1.86-.64,1.23-1.48.95-.96-.33-.85-4.36-.92-5.29-.07-2.11.2-4.26-.25-6.33h-4.18c-.1,0-1.22.41-1.28.49-.45.63.42,2.29-.62,2.04.04-.77-.46-2.51.25-2.79,1.7-.64,3.81-.52,5.57-.25.11.02.37.18.51.25.35.35.45.8.51,1.27l.38.14c.16-.45.68-1.02,1.14-1.41,1.88-.82,9.4-.67,11.78-.5,1.85.13,5.13.42,6.21,2.02Z"/>
  <path class="st1" d="M120.29,179.27c.47-.4.68-.12.76.38.21,1.37-.07,3.35-.01,4.82.05,1.14.27,2.37.28,3.53.04,3.35-.01,6.69-.27,10.02-.4-.17-.48-1.37-.5-1.77-.14-2.03-.25-4.49-.25-6.46v-8.36c0-.76-.54-.83,0-2.15Z"/>
  <rect class="st1" x="86.08" y="199.29" width="6.59" height=".25"/>
  <rect class="st1" x="118.52" y="198.28" width="1.77" height=".25"/>
  <path class="st1" d="M159.57,49.53c-.93.24-1.82.33-2.66.25-1.56.31-3.54.19-5.19,0,1.92.28,4.11.23,6.09,0l.25.25,13.29.27c.75.12,1.3.55,1.49,1.29.23,4.4.27,8.86.18,13.27-.03,1.35.06,2.79,0,4.05-.05.99-.28,3.64-.64,4.43-.18.38-.18.46-.56.7-1.94,1.23-5.42,1.54-7.42,2.97,0,.56,6.92,4.48,7.7,5.97.58,1.11.65,5.72-.09,6.71-.27.36-.84.56-1.28.62-1.24.48-3.53.38-4.81,0l-2.48.25.2.25c2.51-.26,5.17-.49,7.6,0,.54.45.87.58,1,1.41.39,2.46-.06,6.02.28,8.61-.19,2.59-.02,5.27,0,7.83.06,7.5.12,15.03-.32,22.51-.1.36-.63.78-.96.94l-1.77.25c-.08,0-.17,0-.25,0-.62.43-.11.68,1.52.76,1.11.42,1.4,1.28,1.52,2.41.38,3.43.16,9.36,0,12.93-.06,1.48-.38,3.15-.39,4.68-.34.38-.79.45-1.27.51-3.41.39-7.62-.2-11.16-.01-.95.05-1.9.44-2.9.27,0,.43.84.48,1.14.51,3.76.3,7.68-.01,11.41.24.39.03,2.56.3,2.67.37.65.44.12,4.94-.2,5.92-1.54,4.75-6.69,4.8-10.72,5.75-14.96,3.52-29.79,7.71-45.21,7.98-18.01.32-37.47,1.5-55.13-2.14-4.32-.89-8.59-2.12-12.91-3.06-5.95-1.28-16.72-2.39-21.73-5.13-3.23-1.77-3.2-8.65-2.87-11.84.05-.51.08-.81.51-1.13,3.39-.72,6.51-.72,9.38,0,.99-.16,1.31.27.25.51l-.28.51c-2.85-.06-5.68.07-8.49.39-.13.2-.14,3.93-.1,4.51.3,4.94,1.53,6.08,6.22,7.33,2.11.56,4.25,1.01,6.45,1.45,11.33,2.28,22.7,4.39,34.05,6.45,19.05,1.68,38.83,1.98,57.83-.16,12.74-2.56,25.29-5.36,37.63-8.38,3.24-.99,5.01-4.37,4.07-7.54-4.87-.38-9.81-.65-14.82-.79-6.68-1.82,1.94-3.89,4.73-3.44,3.27.13,6.52.11,9.76-.09.16-.03.26-.12.34-.25.8-1.45.37-11.95.22-14.29.21-2.08-.34-3.08-1.65-2.98-1.37-.04-7.01-.31-7.03-2.1-.01-.73.81-1.08,1.42-1.23l7.18-.72c.29-4.09.45-8.17.49-12.25l.33-.63c.2-1.14.3-9.45-.18-9.52-2.66-.38-6.08-.43-8.8-.4-9.29.32-18.64.54-28.05.66-.49-.03-.77-.3-.45-.6,11.11-.26,22.43-.52,33.93-.78,1.07-.7,2.22-.69,3.29,0l-.51-.23v-13.02l.51-.3c-.42-.11-.79-.57-1.1-1.37-2.4-.09-4.83-.07-7.27.06-5.32.5-7.41-3.82-.8-3.38,2.98.39,5.9.41,8.74.07.61-.73.66-6.39-1.44-6.5l-5.46-3.7c-2.49-1.85.1-3.54,2.06-4.11,1.7-.44,3.32-1.02,4.88-1.72,1.23-1.24.65-18.46.56-20.9,0-.08-1.33-.38-1.58-.38-6.05.19-12.07.15-18.07-.09-2.78.25-5.26-2.65-1.14-2.84,6.9-.25,13.7-.65,20.42-1.19.5-.16.39-7.26.22-8.23-.66-3.87-4.76-4.53-8.15-4.82-17.97-.89-36.02-1.7-54.17-2.43l-3.33-.41-4.05-.25c-.35.13-.7.25-1.06.34s-.7.16-1.05.17c-21.1.66-42.53,1.48-63.67,2.39-7.47.32-12.2,1.5-11.53,10.02l-.49.52.17-.51h20.93l.31.51c-.11-.76,1.68-.25,2.06-.01,1.24.77,1.53,1.73.34,2.74l-10.96.33c-1.6-.3-11.4-.46-11.98.2-.29.33.03,3.57.27,3.95l10.73,7.62c.77.72.8,1.84-.03,2.52-3.81,2.37-7.41,5-10.8,7.89h-.53c.19.02.46.06.51.21.09.29.06,4.62,0,5.12l-.51.36c.22-.12.45-.22.69-.3s.46-.14.68-.13c3.92.07,7.86.32,11.71.66.93.08,4.3.42,4.79,1.08,1.76,2.36-3.19,2.45-4.55,2.35-4.34-.33-8.62-.15-12.84.52l-.47-.38c-.22.57-.47,1.04-.76,1.39l.21.04c-.2,9.22-.19,18.44.01,27.66.52.26.29.48-.23.68.43.29-.4.94-.72.65-.16-.14-.21-3.88-.22-4.2-.11-8.48-.15-17.01.43-25.46.24-.79,0-1.52,1.25-1.91,1.02-.32,3.9-.55,5.08-.62l1.38-.35c-2.1-.27-4.26-.41-6.45-.41-.98-.34-1.17-1.13-1.27-2.15-.17-1.68-.19-4.91.8-6.3.65-.92,4.3-3.36,5.46-4.17,1.69-1.19,3.54-2.16,5.14-3.47l-10.49-7.49c-1.15-1.16-1.4-5.95-.15-6.82,4.39-.74,9.03-.69,13.43-.25.53-.15.7-.31.51-.51-4.7.45-9.48.35-14.19,0-1.12-.59-.87-3.4-.76-4.68.17-1.98.94-4.31,2.39-5.72,3.19-3.1,12.19-2.51,16.49-2.77,22.34-1.33,45.03-2.49,67.4-2.05,12.07.24,24.21.91,36.22,1.54,6.83.36,15.75-.02,22.28,1.53,1.97.47,4.8,2.35,5.16,4.47.3,1.78.23,6.41.07,8.31s-.39,2.44-2.42,2.65c-3.45.35-7.26.34-10.77.51Z"/>
  <path class="st9" d="M129.92,74.36c-.41.24-.57-.02-.75-.38l-.26.12c-.66.7-.25-.02-.23,0,.78.7-3.76,6.98-4.83,7.87,4.74-.09-.53,5.68-2.07,7.24,1.15-.1,2.2.03,3.15.4.9,1.62-3.48,6.48-4.81,7.57l2.73-.42c1.31-.22,2.7.22,1.93,1.74.68-.13,1.29-.15,1.1.67,0,.31-.25.55-.51.76-.11.83-1.83,1.24-2.64,1.37-2.64.43-3.89-.22-1.47-2.24l-4.6.46c-1.18.08-1.58-.84-.79-1.7,2.3-1.68,4.58-3.42,6.14-5.9l.82-.35c.14-.28.12-.55-.2-.63l-4.96.25c-.47-.36.8-2.25,1.36-1.9-.05-.16-.08-.3-.03-.38,2.04-2.59,1.83-1.48-.16.17-.06.05-.18.01-.32-.05.04.31-.22.31-.76,0-.47-.02-.84-.42-1.12-1.18l-1.23,1.87c-2.6,3.16-2.18,0-1.87-2.09,1.21-3.73.57-3.58-1.92.46-1.67,3.24-3.37,6.46-5.12,9.66-1.92,1.64-2.29-4.17-1.75-5.13l-2.16,2.76c-1.86,1.87-2.41-.49-1.96-2.2-2.56,3.75-5.25,7.34-8.08,10.79,2.57.5,2.95,2.4.63,3.55l-1.25.26c-8.4-.03-16.67-.04-24.81-.03l.21-.36c-.13-.04-.22-.08-.23-.12-.04-.74-.15-5.45-.03-5.79.03-.08.13-.13.26-.17-.51-.23-.1-.67.43-.71l-.17-.17c-.19-.57.32-.97,1.53-1.22.69-.05.57-2.24.45-2.21-.32,1.38-1.26,3.15-2.91,2.65-.83-.25-1.49-1.81-.59-2.26.11-.56.11-.73,0-.51l-.53-.25c-.17-3.77-.12-7.51.15-11.22-.4.31-.78.42-1.15.32l-.3-.11c-.1.74-.34,1.25-.71,1.5.16.04.29.07.3.12.12,1.94-.1,4.16-.3,6.09.19-2.22.32-4.46.41-6.7l.35-.14.49.36c.23,1.61.14,7.12-1.06,8.17-1.66,1.44-3.62-1.02-2.22-2.2.13-.04.23-.07.26-.04.56.7.15.58-.26.04-.51-.04-.77-.4-.79-1.06-1.09,2.05-.26,6.3,2.57,6.37.78.3,1.63,1.04.75,1.66.2.02.49.08.51.23.14,1.12.17,5.42,0,6.5l-.51.37c.62-.11,1.3-.18,2.03-.2v-4.53c.02-.52.2-.77.75-.72l.25.07.07,5.99c9.3.27,18.61.37,27.94.28l-1.92-.26c-.02-.28.2-.45.68-.51l30.78-.24-.03-4.46c.05-.5.21-.73.76-.62.22.79.56,1.58.25.12-.01-.06-.12-.09-.25-.12-.74-.24-.69-1.52,0-1.77-.03-.24.14-.5.51-.76.76-.17,1.05.67.85,2.51l-.13,4.95c.07.26,1.77.23,2.07-.11.02-.72.59-.69.76,0,3,.74,6.28.97,9.83.71,9.66-.54,19.24-.82,28.74-.82l-.06.61c-8.52.09-16.98.51-25.46.77-2.37.07-5.38-.3-7.62-.01-.37.05-.79.19-.37.51,5.69-.15,11.42-.04,17.11-.24,4.98-.17,9.43-.74,14.41-.49,1.77.09,3.58.35,5.36.32.39.1.35.46.38.78.23,2.18.01,5.33,0,7.62,0,.43.16,1.13-.26,1.39-.68-2.93-.85-5.95-.52-9.06-11.68-.12-23.37.02-35.07.43l-52.1-.25c-20.05-.26-40.19.49-60.02,1.52l.74,38.53,13.76,1.14c1.84,1.76-.15,2.15-1.71,2.4-.8.13-3.16.26-3.43-.5.32-.52.42-.55-.25-.51.09-.42,1.31-.4,1.77-.25.65.2,1.32.2,2.03,0-.36-.08-.87-.16-1.52-.25-.17.19-.35.18-.51,0-.22-.07-.22-.16,0-.25.45-.24-.19-.14-.51,0-.88.28-1.87.15-2.79,0-.25.39-1,.37-1.27,0h-.25l-4.05-.25c-3.36-.18-2.78-.94-2.79-4.05.51-.09.25-1.07,0-.25-.42-.26-.25-.96-.26-1.39-.18-14.54-.26-29.08-.24-43.58,0-5.15-.83-16.61.5-20.92.07,1.89.03,3.81.01,5.71-.07,6.75-.71,14.91-.27,21.54.05.72.33,1.41.27,2.14.16.02.5-.34.5-.38v-28.38c0-.32.4-1.25.76-1.39.38.61.38,1.44,0,2.48-.08,8.73-.08,17.47-.02,26.22.96.03,1.98-.01,3.04-.12l.27.56-.08.39,5.37-.55c1.01-.3,2.17-.33,3.47-.09,5.19-.62,10.45-.87,15.76-.66l.06-.36c-.64-.53-.89-1.35-.75-2.45-.12-1.4-.26-3.56.5-4.64l.26-.2c.09,1.78.17,3.53.25,5.26-.17-3.08-.28-6.19-.34-9.33l.34-.17-.34-.02c-.06-.65-.2-1.28-.42-1.88l-.56-.86c-.54-5.25-.65-10.64-.67-16.05,0-.47.07-.95.15-1.42s.2-.95.32-1.43c.53-.06.7.58.53,1.92l.23.11.51.16,1.23,30.31c1.03.18,8.82.2,9.07-.18.42-.65.37-5.81-.04-6.39-3.63-.3-4.81-5.6-3.85-8.49s3.95-3.54,4.22,0v-3.8c-.04-5.34,5.63-6.06,4.93-.11-.37,3.19-.44,6.4-.23,9.62,1.78-6.55,6.03-.29,3.52,3.11-.46.61-2.72,1.8-3.41,1.25.19.02.46.07.51.22.09.29.06,4.62,0,5.12l-.51.36.18-.51h21.82s.55-.51.55-.51c.16-.28.11-.5-.19-.6-1.25.15-2.12-.07-2.6-.67-.13-.02-.25-.06-.31-.14-1.11-1.43,3.02-1.99,3.83-2.03.31-.13.08-6.42-.07-6.73-1.01-.03-1.79-.32-2.35-.86l-1.68-9.76c-.27-.54-4.48-.98-4.15.68.53,5.3-.71,7.16-3.72,5.57-.77-1.5.58-2.44.46-.4,1.59.62,2.43.11,2.41-1.66l.25-4.95c-.49-.03-.63-.42-.28-.78.23-.24,6.26-.95,6.19.74.95,3.11,1.55,6.37,1.81,9.78,1.61-.04,2.44.39,2.51,1.3-.1,1.74-.05,3.47.14,5.18l2.11-2.7c3.55-5.56,7.28-10.48,11.61-15.43,2.66-3.03,5.73-5.14,6.14.88l.15-.08,14.65-15.03c1.48-.33,2.81,3.9,3.15,5.15l-.29.59Z"/>
  <path class="st9" d="M79.3,28.69c-.52-.52-.35-7.63-.32-8.95.01-.6.25-1.15.27-1.75.05-1.63-.33-7.73.56-8.69.23-.24,3.06-1.54,3.53-1.66,2.34-.6,2.39.54,3.38,2.35.37.69.61,2.26,1.38,1.77.29-.19.99-5.36,2.18-6.56,2.38-2.38,12.38-1.92,15.66-1.51,1.47.19,8.13,1.61,8.9,2.51.29.33.36,1.18.4,1.63.32,3.83-.17,7.85-.27,11.66-.06,2.25.39,6.16,0,8.11-.09.44-.29.66-.67.87l-34.99.21Z"/>
  <path class="st5" d="M37.68,45.73c.39.2.23.37-.51.51-4.48-.02-8.97-.1-13.43.25l2.03-.5c-.89-.02-1.49.16-2.28-.26,4.73-.03,9.46.04,14.19,0Z"/>
  <path class="st39" d="M24.25,76.9c4.33-.17,8.61.26,12.92.51.06.44-.57.24-.88.25-2.31.09-4.66-.13-6.97,0l1.01-.5c-1.92-.19-4.32.36-6.08-.26Z"/>
  <path class="st23" d="M106.1,191.69c-.29-.05-.46-.47-.51-1.27.02-3.05-.14-6.08-.25-9.12.18-.16.33-.35.51-.51l.25,10.9Z"/>
  <path class="st18" d="M31.35,150.64c1.13.1,2.23.18,3.29.25.17,0,.34,0,.51,0,.22.07.22.16,0,.25-.12.14-.29.14-.51,0-.61.02-1.56.25-1.77.25-.74,0-1.4-.27-2.14-.27-2.43.02-4.82-.01-7.23.27,1.1-.83,4.5-.42,5.97-.5.33-.02.58-.26.61-.26.42-.02.85.02,1.27,0Z"/>
  <path class="st11" d="M170.72,90.33c.16.18.32.35.51.51-2.53-.07-5.08.1-7.6,0l-.04-.25,2.32-.26c1.5-.15,3.37.21,4.81,0Z"/>
  <path class="st2" d="M159.57,49.53c-.26.16-1.3.49-1.52.51-1.57.15-3.83.07-5.45,0-.31-.01-.94.19-.88-.25h5.19c.09,0,.42-.25.75-.26.64-.03,1.28.04,1.91,0Z"/>
  <path class="st31" d="M169.2,132.39l-.25.5c.77-.12,1.14.02,1.77.26l-4.81-.25c-.41-.31,0-.46.37-.51.88-.11,1.99.04,2.92,0Z"/>
  <path class="st1" d="M22.99,146.08c-.03-.71-.03-1.95,0-2.67.02-.4.05-.77.51-.88v4.69c-.19.42-.5-.84-.5-.89,0-.08,0-.17,0-.25Z"/>
  <path class="st13" d="M87.35,179.78c-1.1,1.12-.93,3.04-1.02,4.56l-.5-3.29c-.13-.33-.13-.59,0-.76.14.15.28.56.38.51.38-.22.23-.61,1.14-1.01Z"/>
  <path class="st9" d="M84.82,179.52c-.94-.14-4.76-.06-5.57.25.97-.83,2.91-.52,4.18-.51.43,0,1.13-.16,1.39.26Z"/>
  <path class="st18" d="M29.83,150.64c-1.29-.14-2.91.32-4.05-.25,1.31.07,2.91-.26,4.05.25Z"/>
  <path class="st31" d="M171.22,132.14c-.77.37-.99.21-1.77.25.36-.48,1.22-.19,1.77-.25Z"/>
  <path class="st9" d="M85.83,180.28v.76l-.51-1.27c.33.19.32.31.51.51Z"/>
  <path class="st29" d="M113.2,198.27c-1.93.28-3.87.29-5.83.26l-.51-17.23c1.17-.24,5.17.51,5.53,1.7l.81,15.28Z"/>
  <path class="st31" d="M106.1,191.69c.22,2.17.18,4.65.25,6.84h-1.01c0-2.71.24-5.39.25-8.11.15.22.49,1.08.51,1.27Z"/>
  <path class="st34" d="M101.54,31.29l4.05.25c16.7.35,33.39,1.05,50.05,2.02,3.54.21,7.87.03,11.28.89,2.05.52,4.48,2.08,4.79,4.33.22,1.6.24,6.5.03,8.1-.05.41-.1.8-.52,1-.24.12-3.29.35-3.92.39-5.14.31-10.32.45-15.47.75-.71.04-1.84.16-2.54.25-.99.13.01,1.22.63,1.41.54.16,2.26.32,2.93.36,5.58.37,11.46-.09,16.98,0,.52,0,1.8.29,2.03.76.01,5.5.41,11.11.13,16.61-.04.83-.25,3.8-.49,4.33-.14.31-.17.36-.46.56-1.51,1.03-6.41,1.64-7.44,3.2-.45.68-.32.87.18,1.38,1.34,1.38,7.04,4.42,7.56,5.61.37.83.4,5.49-.31,5.82-1.95.88-8.17-.22-10.83,0-.91.08-2.69.48-1.47,1.53,1.88,1.62,8.94.29,11.55.8.51.07.94,1.48.94,1.85v13.56c-1.09,0-2.2-.01-3.29,0-.26-.42-.96-.25-1.39-.26-11.34-.12-23.67,1.53-34.73.78-.89-.06-2.25-.07-2.4-1.02-.13,0-.25-.02-.35-.08-.28-.15-1-6.42.83-5.6,2.5.89,5.22,1.35,7.85.82-1.34-1.97-2.81-3.88-4.38-5.71-1.97-2.27-.92-2.98,3.15-2.11h1.17c-1.89-2.09-3.7-4.25-5.42-6.49-1.06-1.83-1.42-3.45,1.38-2.63l2.29-.02c-2.13-3.05-4.1-6.24-5.9-9.57l-.11-.79c-.69-1.43-1.13-3.45-1.98-4.74-.16-.24-.27-.66-.67-.57l-14.97,15.44c-.47.08-.32-.04-.44-.31-.39-.89-.42-4.59-1.97-3.87-.33.15-2.99,2.47-3.44,2.91-5.41,5.19-9.32,12.98-14.18,18.76-.98-.98-.35-6.35-.61-6.69-.33-.45-1.99.28-2.44-.66-.47-2.64-.61-5.56-1.21-8.17-.91-3.97-2.87-1.76-6.01-2.22-.01.17.01.34,0,.51l-.25,4.85c-.02,1.81-.62,2.26-2.37,1.88.04-.56-.11-.89-.45-1,.09-2.86.02-5.71-.21-8.55-1.99-.34-2.11-.79-2.12-2.8l-1.24-.68c-.22-2.31-.29-4.67-.21-7.06-.52-.22-.93-.5-1.24-.85l-.33-3.54c-.6-.66-2.71-.94-2.97.02l-.1,15.9c-.83,1.91-3.26.77-2.96-.96-.36-.02-.59-2.52-.53-2.83.12-.65.32-.95.91-1.23.35-.35-.16-2.76-.29-2.83-2-.11-4.02-.06-6.02.21l-.41-.42c-.23.71-.44.85-.63.44.26-2.47.3-4.89.13-7.28-1.29.85-2-.15-2.13-3-.3-.56-6.63.36-7.57.93-.11,2.64-.06,5.29.14,7.95l-.32.21c.05,4.26.09,8.55.24,12.81.08,2.27.41,4.75.52,6.96.58,1.92.58,4.39.25,6.33.05,2.37-.17,4.76.25,7.1l-.65.33c-7.78-.13-15.55.42-23.24,1.17l-.68-.23c-1.03-.34-3.61.72-3.8-.38.42-8.55-.56-17.62,0-26.11.06-.9.33-1.78.52-2.65.98-.4,4.94-.71,6.2-.77,2.31-.12,9.38.47,10.93-.22,1.11-.5.65-1.23-.33-1.48-1.51-.39-4.39-.66-6.02-.82-3.57-.34-7.2-.27-10.77-.51v-5.7c0-1.08,9.68-7.32,11.15-8.36.45-.46.38-1.25-.12-1.65l-10.79-7.71c-.37-.65-.78-4.22-.18-4.65.81-.58,7.78-.58,9.2-.57.66,0,1.28.27,2,.28,3.97.03,7.92-.13,11.88-.26.76-.78.38-1.59-.58-1.92-.17-.06-1.57-.37-1.66-.37h-21.41c-.18-5.09.39-9.23,6.03-10.31,2.11-.4,5.36-.72,7.53-.83,14.86-.79,29.75-.95,44.59-1.78,6.69-.37,12.91-.52,19.64-.5Z"/>
  <path class="st4" d="M33.12,151.9c.95-.02,5.02.28,5.32-.64.12-.38-.03-.71-.43-.82l-13.99-1.09-.78-39.52c.96-.04,1.95.07,2.91,0,15.4-1.07,30.2-1.48,45.6-1.53,21.42-.07,42.7.27,64.13.25,6.58,0,13.15-.36,19.74-.51,5.2-.12,10.42,0,15.6.26.2,3.12.21,6.25.25,9.38.06,4.39.19,8.85-.36,13.19-.39.58-6.46.44-7.87,1-2.37.94,1.81,1.88,2.56,2,1.03.17,4.7.05,5.04.78.18.38.36,2.32.39,2.9.21,3.62.31,9.39,0,12.94-.09,1-.04,2.02-1.14,2.16-4.36.55-11.35-.62-15.4.82-2.39.85-.17,1.56,1.2,1.7,4.44.47,9,.19,13.44.5,1.77.12,1.96.54,1.9,2.4-.22,7.11-7.22,6.91-12.43,8.12-12.41,2.88-27.57,7.26-40.15,7.74-11.92.46-25.59.4-37.53,0-11.22-.37-20.67-2.81-31.48-5.01-5.16-1.05-10.43-1.78-15.56-2.94-2.36-.53-6.94-1.4-8.57-3.08-2.35-2.42-1.74-7.41-1.65-10.54.32-.46,8.05-.46,9.27-.49Z"/>
  <path class="st8" d="M37.68,45.73c2.5-.02,5.96-.65,8.25-.01.35.1.79.03.88.52-1.88-.26-3.91.26-5.69.27-1.39,0-2.62-.26-3.94-.26l.51-.51Z"/>
  <path class="st30" d="M165.9,90.33l-2.28.51c-1.19-.05-2.15,0-3.34-.33-.26-.08-.77-.06-.71-.43,2.11.23,4.21.32,6.33.25Z"/>
  <path class="st20" d="M105.59,31.54c-1.3-.03-2.91.23-4.05-.25,1.29,0,2.92-.22,4.05.25Z"/>
  <path class="st25" d="M51.62,76.14c-.1-.22-.19-.44-.23-.68-.42-2.21-.75-7.5-.32-9.62.07-.37,7-1.22,7.37-.92.26.21.36.59.4.92-.11,1.8.04,2.12,1.38,3.16-.21,2.68-.37,5.36-.49,8.04,1.32.34,2.1.42,1.97-1.15l.55-.26c.04-.2.12-.45.29-.48.48-.08,4.06-.12,4.41-.03l.36.51c.91.35.74,2.19-.32,2.39.09.62-.06,1.01-.44,1.16l.18,2.67c.2,1.49,2.37,2.97,3.83,1.71l.55.06-.51-.23c0-5.35,0-10.71,0-16.06l.5-.3c.5-1.37,2.63-.33,2.6,1.06-.3,1.83.1,2.89,1.21,3.19l.31.67c-.09,2.14-.11,4.28-.05,6.4,1.26.44,1.8,1.5,1.64,3.19,2.07.09,2.21.92,2.15,2.78l-.02,6.22c-1.11,2.46,3.81,2.64,3.55-.15l.12-4.24c-.4-1.5,3.74-1.12,4.11-.83l1.67,9.82c.48.64,1.28.99,2.42,1.05.06,2.23.13,4.44.19,6.63-2.57,0-3.95.75-4.16,2.22.95.53,2.01.76,3.17.67.74.1.81.28.12.59l.13,1.01h-22.68v-5.7c0-.23,2.42-.81,3.01-1.55,1.02-1.3.76-5.7-1.24-5.06-1.51.49-.82,2.95-2.27,3.19-.35-1.7-.3-3.47-.27-5.21s.78-6.86.12-8.21-2.33-.89-3.02.25c-1.06,1.76-.48,4.69-.65,6.7-.03.31-.38,2.79-.75,2.41-.35-1.24.18-5.69-2.26-4.16-2.55,1.59-1.61,7.92.89,9.2.56.29,1.36.21,1.63.4.17.12.52,3.48.52,4.07,0,1.06-.39,2.32-.39,3.44l-10.03.24-1.27-31.17Z"/>
  <path class="st17" d="M93.18,107.56l-.51-.5c1.46-.17,2.28-1.63.65-2.3-.65-.27-1.64-.05-1.92-.74l1.27-.64,8.49-11.78c.67-.05.24.11.2.45-.09.63-.78,3.43.06,3.6.78.16,3.21-4.58,3.92-3.8-.08,1.38-.43,2.75-.23,4.16.08.55.29,1.65,1.1,1.4,2.85-4.8,4.4-10.55,8.89-14.17l-1.07,4.51-.33,2.84c.41.47,2.29-2.63,2.49-2.95.16-.26.29-.54.3-.84.89.39.86,1.5,1.26,2.28.36.04.64.16.83.36-.36.1-1.39,1.52-.96,1.77l5.05-.23c.44-.01.37.28.15.63-1.09,1.81-2.58,3.42-4.18,4.82-.57.5-3.13,1.8-2.67,2.53.25.39,5.92-.53,6.84-.5-.11.62-2.96,1.86-2.28,2.53,1.7.22,3.25-.51,4.81-1.01.05.54.03,1.23,0,1.77,0,.05-.26.4-.27.86-.02.71.33,4.6-.14,4.73l-31.77.24Z"/>
  <path class="st38" d="M128.91,74.11l.44.21c1.68,3.13,3.59,6.12,5.63,9.03.26.52-.01.79-.47,1.06h-3.77c-.28,1.46,4.29,6.88,5.45,8.04.32.53,0,1.02-.56,1.13-1.5-.29-2.9-.38-4.19-.29l5.27,7.33c.27,1.02-.44,1.4-2.15,1.16-1.89-.25-3.75-.65-5.58-1.22-.4,1.85-.41,3.75-.03,5.72l-.3.26c.04.24-.02.51,0,.76h-2.54c-.2-2.38.27-5.17.02-7.5-.04-.36-.02-.36-.27-.61-.73-.75-1.9.57-2.79.5,4-3.8-1.37-2.1-3.79-1.88-.34.03-.6.37-.52-.27,2.46-2,5.17-4.53,5.83-7.73l-4.31-.13c1.36-.54,5.74-5.88,4.95-6.98-.47-.66-2.01.41-2.67-.12,2.33-2.38,4.42-5.11,5.76-8.18.2-.46-.19-.82.57-.31Z"/>
  <path class="st16" d="M66.06,96.92v.51c.11,1.06.16,2.15,1.59,1.73,1.15-.34,1.44-2.8,1.7-2.99.88-.63.97,2.35.52,3.12-.36.6-1.79.7-2.29,1.19-.26.33-.51.67-.76,1.01-.74,1.06.18,4.81-.36,5.59-.32.46-2.42.31-2.42-.14v-7.1c0-1.57-2.23-1.18-2.96-1.98-1.2-1.31-2.36-6.39.17-7.02-.22.77.17,1.47.25,2.03.15.93-.18,2.52,1.6,1.99,1.65-.5,1.09-6.81,1.19-8.32-.46-.13-.22-.86.25-.76.52-.81,1.55-1.27,1.77-.13l-.52,7.59.26,3.68Z"/>
  <path class="st14" d="M67.58,81.97c.53,1,1.7,2.24,2.48.83l.07-15.64c-.09-1.8,3.64-1.42,3.99-.22.2.68.07,3.14.34,3.59.11.17,1,.14,1.19.71.4,1.23-.33,6.24.08,6.89.09.14,1.1.25,1.36.8.3.63-.06,1.63.23,2.05s1.82.17,1.93.66l.24,9.72c.45-.08,1.55.2,1.8-.15.67-.93.13-5.21.73-6.44-.06,1.22.21,6.34-.7,6.84-.41.23-1.82.34-2.06-.04-.19-.31.23-1.02-.29-.97-.92,1.75,2.49,1.89,2.92,1.28.77-1.09.38-4.94.62-6.22.22-1.18,3.22-.46,4.27-.6l1.85,10.19c.34.81,1.83.48,2.21.71.29.17-.02,2.11.02,2.64.08.91.71,3.37.49,4.01-.38,1.11-5.16.16-4.02,2.44.04.38-.23.2-.51,0-1.03-1.89,2.88-2.21,4.05-2.28-.35-.94-.01-6.35-.25-6.58-.14-.13-1.91.25-2.47-.95l-1.55-9.8c-.16-.24-3.29-.25-3.59-.04-.94.66,1.05,7.15-2.4,7.25-1.28.04-2-.37-2.15-1.65-.23-2,.46-6.89-.03-8.33-.22-.64-1.54-.4-1.93-.73-.53-.45-.11-1.93-.44-2.48-.23-.38-1.18-.37-1.36-.92-.49-1.5.36-5.13-.03-6.76-.08-.35-1.02-.23-1.24-.85-.62-1.79.75-4.52-2.32-3.88v16.6c0,.31-.97.86-1.39.9-3.15.35-3.42-2.99-3.18-5.34,1.01-.96.62,4.46.68,2.92l.34-.13Z"/>
  <path class="st1" d="M128.91,74.11c-.19-.5-1.1-1.93,0-1.78-.24,1.05.64,1.45,1.02,2.03,1.47,2.24,2.78,4.56,4.2,6.82.43.68,2.85,3.59,2.39,4.07-.97-.02-1.94.04-2.91,0-.48-.02-1.74-.66-1.64.12.31,2.62,6.49,7.8,6.33,8.62-.19,1.02-4.77-.22-5.57,0,.58,1.83,5.51,6.43,5.58,7.85.03.54-.02.33-.38.39-3.03.44-5.64.07-8.49-1.01-.42.38-.13,4.51,0,5.32h-.76c-.33-2.16-.98-4.37.02-6.57,2.62.58,5.01,1.63,7.83,1.24l-5.54-7.78c-.28-1.81,4.01.05,5.03-.45-1.64-1.89-3.5-3.72-4.69-5.95-2.59-4.85-.09-2.58,3.42-3.17-1.99-2.96-4.58-6.41-5.83-9.76Z"/>
  <path class="st1" d="M50.86,74.11c-.1-1.53-.66-7.31-.13-8.36.26-.51,4.01-1.14,4.85-1.23.45-.05,2.64-.24,2.89-.17,1.31.33.81,3.22,1.01,3.43.05.05.86,0,1.26.26.3,1.01.53,3.11-.25,3.67l.26.12-.13,3.23c.36.2.3.62-.13.7.27.31.39.1.36-.61l.4-.27c.76-.3,6.36-.51,6.81-.22.17.11.6,2.5.57,2.89-.1,1.04-.83.81-1,1.3-.23.65.02,2.28-.04,3.13-.01.19.04,1.32-.5.76-.3-.31-.2-2.57-.27-3.16-.03-.22-.23-.34-.24-.39-.4-2.19.63-1.38.77-1.95.11-.45-.07-1.1,0-1.6h-5.07c-.1,0,.04,1.56-.5,1.91-.35.23-2.18.24-2.43-.12-.49-.71.54-7.11.41-8.46-2.16-.72-.96-2.03-1.55-3.69l-6.82.74c-.04,3.39.29,6.74.25,10.14-.01.99.12,2.24,0,3.17-.05.37-.19.79-.51.37-.1-1.62.13-3.36,0-4.96-.03-.34-.26-.58-.26-.61Z"/>
  <path class="st7" d="M106.35,89.44c-.4-1.41-1.62,1.09-1.77,1.27-.7.83-1.54,1.62-2.28,2.41-.19-5.35,4.51-8.37,7.73-11.91.41,1.25.99,3.13.91,4.44-.07,1.19-1.59,3.25-2.18,4.42-.34.67-1.97,4.39-2.15,4.57-.84.81-.25-.83-.25-.89,0-.97.2-3.61,0-4.31Z"/>
  <path class="st1" d="M67.58,100.46c.35-.08,1.17-.23,1.52-.13-.5.89-1.77.06-1.77,1.01v6.08c0,.58,1.28.12,1.64.11,8.02-.17,16.35,0,24.21.01,10.21,0,20.54-.19,30.8,0,1.19.02,3.92.5,4.79.28.33-.08-.11-1.03.52-.78.29.12-.06.69.27.78.88.25,2.88-.22,3.92-.01l-.88.25c-9.72.01-19.44-.01-29.15-.01-4.87,0-9.78.03-14.7.02-7.86-.02-15.88,0-23.8-.02l-.64-.49c.43-.08,2.43.1,2.54,0,.22-.22-.09-5.13,0-6.08.08-.8-.07-.82.76-1.01Z"/>
  <path class="st1" d="M52.13,107.31c.12,0,.46.46.87.48,3.05.12,6.75-.56,9.93-.2.38.04.74-.03.85.48-6.62.19-13.29-.24-19.91,0-2.7.1-6.34.94-8.84.76-.49-.03-.9-.52-1.27-.51-.12,0-.09.43-.32.51-.79.26-6.39.64-7.3.53-.38-.04-.78-.05-.88-.51.87.2,1.62-.14,2.28-.26,7.52-1.27,16.83-1.37,24.58-1.27Z"/>
  <path class="st19" d="M118.52,89.06l4.29-5.21c1.17-.71,1.64-.6.92.66-1.35,2.35-2.92,3.15-4.7,4.8-.42.25-.67.26-.51-.25Z"/>
  <path class="st1" d="M51.62,93.88h.51c-.26.61.25,1.56.25,1.9v9.5c-.45.06-.24-.57-.25-.88-.05-1.14.18-2.78,0-3.8-.04-.23-.24-.36-.25-.38-.26-2.22-.14-4.11-.25-6.33Z"/>
  <path class="st1" d="M64.29,86.53c-.46,1.54-.18,3.06-.26,4.69l-.5,2.16v-6.21c0-.1.44-1.83.51-1.9.3-.27.67.13.5.51-.02.03-.21.63-.25.76Z"/>
  <path class="st1" d="M51.37,80.19c.44-.06.24.57.25.88.09,2.42.26,4.81.25,7.22l-.5-1.65v-6.46Z"/>
  <path class="st37" d="M118.52,89.06c.1.02.31.27.51.25-.54.51-1.41.87-1.27,1.77l5.57-.25c.11.08-.43.63-.51.76.14-.75-.39-.5-.88-.51-1.49-.02-2.94.44-4.44.26-.4-1.07.56-1.45.76-1.9.07-.17-.4-.18-.51-.38.24.03.54-.04.76,0Z"/>
  <path class="st1" d="M66.82,91.47c-.01.1-.25.72-.5.63v-1.66s.5-5.18.5-5.18c-.19,1.94.26,4.33,0,6.21Z"/>
  <path class="st1" d="M125.36,101.73c0-.06.28-1.11.5-1.01v5.32c-.37.05-.45-.66-.48-.91-.1-.91-.12-2.5-.02-3.4Z"/>
  <path class="st1" d="M63.78,106.8c-.98-.33-.25-1.1-.25-1.39v-5.45h.25v6.84Z"/>
  <path class="st12" d="M87.35,105.03c.25.08.48.37.94.45,1.01.17,2.11.06,3.12.31.06.34-1.21.54-1.27.5-.02-.02.1-.44-.16-.51-.89-.23-2.5.39-3.13-.76.16.03.38-.04.51,0Z"/>
  <path class="st1" d="M61.5,92.86c-.08-.57-.18-1.79.5-2.03v2.79c-.23.11-.5-.71-.5-.76Z"/>
  <polygon class="st1" points="59.22 95.65 59.22 92.1 59.62 94.89 59.22 95.65"/>
  <path class="st1" d="M66.06,96.92c.02-.54-.24-1.68.51-1.14l-.51,1.65c-.02-.16,0-.34,0-.51Z"/>
  <path class="st6" d="M34.14,150.64c.17-.12.33-.14.51,0v.25c-1.05-.02-2.45.23-3.29-.25.92-.04,1.86.02,2.79,0Z"/>
  <path class="st1" d="M66.57,93.12c-.05.65.29,1.71-.5,2.03.52-.61-.51-2.22.5-2.03Z"/>
  <path class="st1" d="M22.98,115.16c-.44.06-.24-.57-.25-.88-.03-.55.01-1.1,0-1.65.44-.06.24.57.25.88.03.55-.01,1.1,0,1.65Z"/>
  <path class="st1" d="M51.87,91.34c-.58-.35-.1-1.69-.25-2.28.58.33.1,1.69.25,2.28Z"/>
  <path class="st6" d="M35.15,150.89c.67.01,1.35-.01,2.03,0v.25c-.16.03-.38-.04-.51,0-.54.18-1.05.18-1.52,0v-.25Z"/>
  <path class="st1" d="M70.62,99.2h-.25s0-1.52,0-1.52c.78.25.28.91.25,1.52Z"/>
  <path class="st1" d="M35.15,151.14c.51,0,1.01,0,1.52,0-.61.2-1.42.61-2.03,0,.17,0,.34,0,.51,0Z"/>
  <path class="st1" d="M125.87,99.2c.54.54-.28.69-.51.76-.03-.29-.18-.5-.25-.76.2.02.71-.05.76,0Z"/>
  <path class="st1" d="M34.14,150.64c.3-.46,1.05-.21,1.52-.25v.25c-.34.01-.68,0-1.01,0-.17,0-.34,0-.51,0Z"/>
  <rect class="st1" x="24.76" y="149.88" width="1.26" height=".25"/>
  <path class="st26" d="M127.91,72.21c-.03-.34-.42-1.84-.9-1.65l-10.38,10.9c-.57.95-.6,2.46-.9,3.54-.15.54-.54,1.24-.76,1.77.67.09.78-.58,1.01-1.01.09-.16.16-.34.25-.51l.76-.51c.88.7.63,2.21,1.52,2.79.66-1.63,2.15-2.68,3.3-3.93l-1.01-.5c2.01-2.32,7.34-7.75,7.11-10.9Z"/>
  <path class="st34" d="M113.94,27.47l-33.71.41c-.96-2.41-.29-4.96-.23-7.36.09-3.43.04-6.85.37-10.27.63-.66,3.69-2.19,4.4-1.73.18.12,1.73,3.28,2.11,3.85.22.32.99,1.52,1.35,1.44,1.49-2.13.89-7.26,3.56-8.35,4.25-1.75,13.67-1,18.16.07.7.17,3.43.92,3.86,1.21.39.27.36.43.41.85.5,4.34-.1,10.51-.28,14.95-.06,1.64.08,3.3,0,4.94Z"/>
  <path class="st27" d="M94.9,49.1c14.88-.93,16.74,20.82,2.94,22.45-15.72,1.86-18.19-21.5-2.94-22.45Z"/>
  <path class="st21" d="M81.49,59.95c.1.12.1,3.12,0,3.24-.35.41-5.95.31-6.95.29-.6-.01-1.15-.27-1.75-.27-5.28-.07-12.23.6-17.25.02-.56-.06-1.02-.18-1.38-.64l5.56-6.09c1-1.05,2.4-.54,3.6-.3,3.52.7,6.98,1.98,10.53,2.64,1.05.2,7.38.81,7.63,1.11Z"/>
  <path class="st21" d="M109.46,65.18c-.61-.49.66-4.2.87-4.25.85.05,1.63-.21,2.47-.26,3.95-.22,9.19.04,13.2.26.77.04,2.35.14,3.03.26.29.05.52.1.61.42.17.54-1.45,6.25-1.87,6.68-.15.15-.3.25-.52.26l-17.8-3.37Z"/>
  <path class="st21" d="M110.21,59.61c-.28-.36-.85-3.36-.31-3.88l14.63-6.4c.57-.12.99-.18,1.46.2.33.27,3.34,4.94,3.39,5.25.17,1.11-1.73,1.38-2.59,1.62-4.01,1.14-11.66,3.01-15.66,3.35-.27.02-.73.09-.91-.14Z"/>
  <path class="st28" d="M118.95,39.94c.83-.23,1.45.67,1.98,1.23.6.62,4.27,4.9,4.07,5.33-1.83.94-15.79,7.89-16.61,7.48-.37-.18-2.35-2.27-2.17-2.68l12.73-11.36Z"/>
  <path class="st21" d="M92.8,89.82c-.98-.12-1.77-.34-1.91-1.38-.41-3.03.08-7.77.28-10.9.22-3.51-1.16-4.58,3.61-3.68.68.26.83,6.93.98,8.2s.36,2.5.59,3.72c.1.54,1.45,4.05.52,4.05-1.24,0-2.88.14-4.05,0Z"/>
  <path class="st32" d="M70.67,45.44c-.51-.82,1.49-2.86,2.11-3.51.54-.57,2.55-2.48,3.17-2.68.21-.07.35-.13.58-.07.57.15,3.42,4.26,4.1,5.04.92,1.06,1.95,2.14,2.91,3.17.63.67,2.9,2.51,3.01,3.09.16.84-1.2,2.32-1.92,2.18l-13.96-7.22Z"/>
  <path class="st32" d="M68.67,47.84c.25-.22.6-.39.92-.21,2.19,1.57,4.57,2.94,6.94,4.23,1.53.84,4.25,1.77,5.48,2.63,1.3.91.46,3.17-.61,3.17-.44,0-1.46-.23-1.97-.34-4.57-.91-9.08-2.58-13.64-3.6-.29-.19-.2-.37-.15-.64.17-.91,2.33-4.64,3.02-5.23Z"/>
  <path class="st10" d="M121.03,69.06c.4.59-1.18,2.26-1.62,2.77-.64.73-3.86,3.98-4.57,4.06-.64.07-2.5-1.44-3.14-1.93-.68-.52-5.24-4.23-5.3-4.58-.1-.51,1.61-2.97,2.14-3.07l12.49,2.75Z"/>
  <path class="st20" d="M104.07,32.3l-5.63,14.89c-.19.25-3.13.1-3.49-.07-1.11-.54-.27-4.67-.24-5.82.06-3.09-.21-6.2.25-9.26,3.05-.21,6.09-.29,9.12.25Z"/>
  <path class="st24" d="M87.29,33.37l4.87,13.02c.14.64-1.89,1.99-2.47,2.08-.23.03-.36,0-.58-.06-.69-.21-5.28-5.86-6.07-6.88-.55-.72-2.9-3.45-2.5-4.13,1.45-.35,5.17-4.17,6.16-4.25.14-.01.49.11.58.22Z"/>
  <path class="st20" d="M109.07,34.87c.83-.24,3.45,1.47,4.21,2.04.7.53,1.93,1.08,1.66,2.05l-10.48,10.32c-.77,1.12-3.08-.19-3.17-1.15,1.82-4.16,4.76-7.86,6.74-12,.29-.37.57-1.12,1.04-1.26Z"/>
  <path class="st24" d="M86.75,70.58c.58-.18,2.67,1.62,2.58,2.58-.21,2.24-3.28,6.16-3.87,8.56-.16.32-.7,1.16-1.02,1.19-.28.02-4.74-2.37-4.41-3.29.8-1.15,6.07-8.84,6.72-9.04Z"/>
  <path class="st24" d="M97.28,73.65c.72.03,2.96-.93,3.38-.31l2.78,9.1c.22,1.11-3.96,2.8-4.45,2.46-.53-.37-2.24-10.89-1.72-11.25Z"/>
  <path class="st24" d="M104.77,71.11c.34-.05.49-.07.81.08.83.39,2.8,2.85,3.67,3.68.82.78,3.67,2.24,2.66,3.41-.43.5-4.29,2.78-4.89,2.63-.98-.25-3.74-6.9-4.71-7.99-.06-.42,1.98-1.74,2.45-1.82Z"/>
  <path class="st10" d="M83.51,65.79c.28.16,1.84,2.44,1.18,3l-5.05,5.6c-.33.28-.78.36-1.16.12-.21-.13-2.08-4.09-2.17-4.44-.1-.39-.1-.75.13-1.09.24-.36,6.72-3.38,7.07-3.18Z"/>
  <path class="st0" d="M60.74,68.03c.32.21.47.52.5.9l-.5,6.2c.05.07.35-.19.5-.25l-.25,1.77c-1.15-.04-.51-.64-.51-.89v-4.05c0-.09.24-.42.26-.75.06-.97-.06-1.96,0-2.92Z"/>
  <path class="st1" d="M69.67,113.95c.42-.42,7.42-.49,8.05-.19.72.35.61,1.94.34,2.6-.25.59-1.62.84-1.84,2.23-1,6.34,2.7,16.61-3.9,20.43-3.38,1.95-10.32,1.41-12.7-2.09s-.54-13.27-1.18-17.82c-.31-2.22-2.06-1.63-2.58-2.74-.27-.58-.33-2.27.13-2.67,1.1-.95,8.36.37,10.19-.05,1.08.15,1.11,1.7.76,2.52-.32.75-1.76,1.04-1.89,1.91.37,4.66-.52,10.13,0,14.69.23,2.02,1.13,2.79,3.17,2.68,1.19-.06,3.52-1.51,3.68-2.67.56-4.08-.43-9.46-.03-13.68-.23-1.44-3.94-3.4-2.21-5.15Z"/>
  <path class="st1" d="M109.9,129.86c.19,1.49-.26,3.53,0,4.93.22,1.17,1.83,1.25,2.15,1.91.49,1.01.17,2.66-.95,3.1-.8.32-7.07.35-8.18.2-2.06-.28-2.51-2.51-1.14-3.95.47-.49,1.37-.58,1.29-1.5-.56-4.94.72-11.47-.03-16.22-.26-1.64-2.23-1.6-2.29-3.32-.04-1.15.58-1.55,1.65-1.65,2.23-.21,5.83-.1,8.13,0,1.32.06,4.38.22,5.5.58,4.23,1.35,5.69,7.71,4,11.48-.68,1.51-3.8,4.42-5.46,4.42h-4.69Z"/>
  <path class="st1" d="M44.98,113.21c2.08-.12,3.36.7,4.74.69,1.12,0,2.59-1.81,3.62.17.43.83.46,5.68.32,6.8-.18,1.41-1.99,1.44-3.05,1-1.22-.51-1.95-4.01-3.48-4.37-2.41-.58-3.74,1.21-2.47,3.23,2.25,3.57,8.75,4.93,10.26,10.52,1.33,4.92-4.66,9.7-9.24,8.99-1.04-.16-2.07-1.03-3.31-1.02-1.45,0-4.29,2.64-4.69-.86-.14-1.22-.14-7.27.23-8.14.26-.61.72-.88,1.39-.85,2.46.09,3.05,4.9,5.71,5.7,1.89.57,3.66-.38,3.25-2.48-.41-2.1-5.83-4.99-7.56-6.64-.73-.69-2.62-2.91-2.76-3.83-.81-5.22,1.79-8.59,7.03-8.9Z"/>
  <path class="st1" d="M90.86,139.45c-.43.27-9.65.13-10.1-.09-.74-.36-.59-1.68-.31-2.34s1.3-1.18,1.6-1.7c.57-.99.2-11.58.23-13.71.01-.92.36-2.27.2-3.23-.17-1.03-3.17-2.12-2.35-3.97.45-1.01,3.95-1.04,5.08-1.03,2.6.02,7.06.18,9.5.89,7.66,2.23,6.86,13.86-1.43,15.31-.85.15-4.17.07-4.37.7-.25.77.01,3.84.34,4.66.46,1.15,1.97,1.23,2.11,2.72.03.32-.36,1.72-.49,1.8Z"/>
  <path class="st1" d="M85.51,144.62c9.4-1.27,14.44,3.84,13.49,13.23-.65,6.46-9.18,9.12-14.58,7.23-10.46-3.65-8.91-19.12,1.09-20.47Z"/>
  <path class="st1" d="M149.94,123.52c.52.11.59-.26.81-.58.55-.81,2.48-5.07,2.12-5.75-.28-.53-1.27-.53-1.41-1.41-.17-1.03.31-2.01,1.39-2.15,1.27-.17,5.05-.15,6.35,0,.7.08,1.29.27,1.53,1,.66,2-.88,1.98-1.83,2.89-.24.23-.57.79-.8,1.1-.88,1.24-5,8.25-5.31,9.39-.37,1.33-.06,2.29-.05,3.48.01,1.04-.18,2.62,0,3.55.2,1.04,1.63,1.36,1.9,1.9.37.76.22,2.61-.76,2.79-1.3.24-7.14.14-8.5-.12-1.24-.23-1.64-.74-1.53-2.04.11-1.24,2.15-1.75,2.5-3.34.3-1.32,0-4.76-.37-6.11-.29-1.02-4.44-8.48-5.14-9.23-1.41-1.5-5.94-3.26-1.64-5.5l8.98.36c1.82,1.2-.56,3.29-.47,4.24.15,1.52,2.11,3.87,2.24,5.51Z"/>
  <path class="st1" d="M73.07,146.92c2.12,1.96,1.89,6.23-.03,8.28-2.44,2.61-6.67,2.8-10.02,2.78.14.98-.22,2.48.05,3.37.29.97,2.63.95,2.7,2.57,0,.16-.21,1.07-.26,1.11-.6.5-10.3.46-10.99-.21-.38-.37-.5-1.62-.33-2.12.28-.81,1.53-.23,1.73-2.33.23-2.42.33-8.85.02-11.16-.23-1.65-2.35-.75-2.06-3.29.14-1.24,1.86-1.31,2.92-1.39,3.17-.24,10.78-.24,13.63.83.56.21,2.23,1.16,2.64,1.54Z"/>
  <path class="st1" d="M107.57,144.63c1.14-.14,2.83-.18,3.96-.04s2.31,1,3.07,1c.81,0,2.83-1.74,3.55-.27.22.46.22,4.48.14,5.21-.15,1.28-1.8,1.06-2.73.68-.98-.4-1.29-1.87-2.22-2.59-2.9-2.26-6.67.12-3.4,2.64,3.02,2.32,8.92,2.54,9.58,7.39.79,5.78-5.36,7.59-10,6.96-.87-.12-2.77-1.29-3.29-1.27s-2.63,2.76-3.73.19c-.28-.66-.58-4.88-.44-5.63.18-.97,1.44-1.54,2.34-1.36,1.19.24,2.03,2.55,2.96,3.39,1.69,1.52,6.26,2.22,5.54-.97-.41-1.8-6.7-3.75-8.39-5.04-4.41-3.35-2.46-9.61,3.07-10.28Z"/>
  <path class="st1" d="M139.49,139.17h-17.11c-1.34-3.21,1.92-2.43,1.99-5.64.09-4.12.02-8.52-.01-12.66,0-.36-.32-3.04-.39-3.18-.29-.59-1.62-.69-1.85-1.44-.18-.6-.2-2.17.46-2.49.49-.24,9.16-.23,9.63,0,2.22,1.06-1.14,3.46-1.28,4.55l.05,16.19c.3.9,2.73.8,3.49.54,1.95-.66,2.22-5.62,4.57-4.55,1.69.78,1.06,7.04.45,8.68Z"/>
  <path class="st1" d="M135.75,161.53c.06.1,1.47.63,1.72,1.45.12.41.05,1.89-.24,2.07-.42.26-9.43.16-9.85-.09-.26-.16-.46-.73-.5-1.04-.26-2.09,1.93-1.87,2.03-2.3l.21-12.6c-.2-.62-1.99-.53-2.5-.29-1.13.54-.36,3.81-3.37,3.11-1.63-.38-1.34-3.73-1.19-5.14.19-1.85.94-1.75,2.66-1.9,4.27-.36,9.27.26,13.69.26,1.26,0,3.35-.79,3.65,1.15.28,1.8.49,5.71-1.91,5.94-2.1.2-1.22-2.28-1.99-3.05-.56-.57-2.42-.72-2.42-.11,0,1.62-.34,12.02,0,12.54Z"/>
  <path class="st35" d="M103.22,53.17c10.05,9.85-5.69,24.26-14.99,13.85-8.87-9.92,5.44-23.21,14.99-13.85Z"/>
  <path class="st35" d="M55.93,62.2c-.11-.44.18-.51.38-.76.41-.54,4.47-4.67,4.81-4.72,4.07.97,8.11,2.15,12.25,2.87,2.49.44,5.13.53,7.54,1.07.65,3.02-1.03,1.84-2.79,1.78-7.38-.23-14.77-.28-22.18-.24Z"/>
  <path class="st35" d="M128.65,62.2c-.57,1.16-.73,3.68-1.31,4.64-.16.26-.25.43-.6.43l-16.59-2.8c.42-.8.25-2.61,1.14-2.79l17.36.51Z"/>
  <path class="st35" d="M125.57,50.33c.41.24,2.36,3.86,2.83,4.52l-17.48,4.06-.22-2.5c1.92-.33,14.09-6.54,14.87-6.07Z"/>
  <path class="st35" d="M119.53,40.92c.9,1.73,2.68,3.07,3.81,4.68.16.22.46.32.13.64l-14.33,6.73c-.57.19-1.92-1.17-1.66-1.67l12.05-10.39Z"/>
  <path class="st22" d="M95.97,89.06c-.78-.07-3.82-.06-4.02-.67l.22-13.78c.58.05,1.79-.25,1.99.42l1.81,14.03Z"/>
  <path class="st22" d="M71.64,44.97c-.1-.38.1-.42.25-.63.4-.58,4.09-4.26,4.43-4.18,2.84,3.81,6.07,7.23,9.5,10.52-.53.55-.67.99-1.51.78-1.11-.27-4.27-2.4-5.57-3.07-2.33-1.2-4.68-2.4-7.1-3.42Z"/>
  <path class="st22" d="M81.74,55.14c.14.22-.12,1.38-.25,1.47-.6.42-12.47-3.3-14.28-3.28l-.64-.38c-.08-.37,2.56-4.38,2.91-4.38,3.86,2.58,7.94,4.86,12.26,6.58Z"/>
  <path class="st22" d="M108.82,67.56c1.95-.55,7.88,2.37,10.29,2.03.25.1.48.3.42.59-.07.33-4.24,4.23-4.9,4.67l-7.15-5.55c-.13-.27.97-1.63,1.34-1.74Z"/>
  <path class="st22" d="M102.05,35.85c-.29.62-.81,1.29-1.13,2.04-1.14,2.64-2.11,5.37-3.06,8.09-.37.5-1.68.74-2.16.41-.8-.55.31-12.08.02-13.83h5.95c.23,0,.92.47,1.4.25.15.14-.4,1.47-.51,1.77-.29.37-.41.82-.51,1.27Z"/>
  <path class="st3" d="M102.05,35.85c-.01-.48.07-.99.51-1.27-.2.6-.25.72-.51,1.27Z"/>
  <path class="st22" d="M86.59,34.33l4.53,11.59c.26.6-1.24,1.6-1.62,1.6-.62,0-6.99-8.47-7.99-9.52l.32-.45,4.75-3.21Z"/>
  <path class="st35" d="M113.95,38.39l-10.26,10.41c-.49.52-1.64-.32-1.65-.9-.01-.5,3.9-6.16,4.51-7.15.94-1.54,1.78-3.26,2.6-4.87.63-.46,3.96,2.27,4.79,2.52Z"/>
  <path class="st15" d="M84.55,81.71c-.51.36-3.11-1.61-3.53-2.15.99-.78,5.56-7.82,6.16-7.71.21.04,1.16,1,1.13,1.33l-3.77,8.53Z"/>
  <path class="st15" d="M99.73,74.4c.36.23,2.68,7.74,2.59,8.16-.03.14-2.28,1.23-2.67,1.18l-1.67-8.74c-.07-.73,1.4-.83,1.75-.6Z"/>
  <path class="st15" d="M110.91,77.91c-.11.17-3.06,1.65-3.55,1.92-.33-.16-3.25-5.56-3.6-6.3-.41-.88.95-1.61,1.57-1.33,1.28.58,3.66,4.37,5.34,5.07.21.12.35.48.25.64Z"/>
  <path class="st36" d="M82.92,66.82c.3.02,1.04,1.06.77,1.45l-4.57,5.07c-.4-.63-1.86-3.29-1.54-3.8.16-.25,5.04-2.75,5.34-2.72Z"/>
  <path class="st33" d="M109.9,117.82c.31-1.01,3.19-.15,3.77.79.39.62.45,5.02.15,5.67-.77,1.65-2.29,1.66-3.92,1.53v-7.98Z"/>
  <path class="st33" d="M89.12,125.81c.4-2.13-2-10.4,2.63-7.82,1.74.97,1.61,2.83,1.4,4.63-.28,2.29-1.65,3.63-4.03,3.2Z"/>
  <path class="st33" d="M86.77,148.41c2.33-.68,4.75.71,5.13,3.13.19,1.23.18,6.32-.09,7.48-.65,2.78-3.86,4.78-5.93,1.84-1.57-2.22-1.69-6.64-1.25-9.27.13-.76,1.43-2.97,2.15-3.18Z"/>
  <path class="st33" d="M62.52,148.36c1.57.11,3.9-.54,4.78,1.17.41.78.43,2.57.17,3.4-.62,2.04-4.95,2.12-4.95,1.38v-5.95Z"/>
</svg>