<?xml version="1.0" encoding="UTF-8"?>
<svg id="Layer_1" xmlns="http://www.w3.org/2000/svg" version="1.1" viewBox="0 0 50 50">
  <!-- Generator: Adobe Illustrator 29.6.1, SVG Export Plug-In . SVG Version: 2.1.1 Build 9)  -->
  <defs>
    <style>
      .st0 {
        fill: #fff;
      }
    </style>
  </defs>
  <path class="st0" d="M49.81,17.26c-.05-2.45.36-5.27.11-7.62-.14-1.27-.95-1.45-2.31-1.73-3.12-.65-7.78-.61-11.11-.76-1.47-.07-2.95-.04-4.42-.12-.16-.12,0-.3,0-.49.03-1.25.1-2.79,0-4.02-.03-.31-.09-.86-.34-1.07-.47-.39-2.3-.9-3.01-1.05-1.66-.36-5.59-.74-6.94.21-.22.16-.43.32-.46.57-.67-.54-1.53-.2-2.27.09-.73.29-1.18.55-1.28,1.26-.19,1.38.2,2.84-.1,4.22l-6.23.25c-2.44.1-5.31.08-7.69.34-1.21.13-2.92.6-3.16,1.7-.29,1.33-.11,2.76,0,4.1.62.75,1.79,1.05,2.49,1.76l-2.76,1.7c-.23,1.68-.17,3.4-.18,5.1-.01,2.66.03,5.35,0,8.02-.02,3.09-.29,6.23-.11,9.33.07,1.14.09,2.23,1.33,2.94,1.54.88,6.73,1.59,8.79,1.91,2.39.37,4.8.68,7.21.93.13,1.38-.16,2.94,0,4.29.03.23.08.59.38.68,3.67.34,7.34.18,11.02.19l2.4-.17c.17-.07.27-.82.28-1.02.1-1.27-.08-2.62,0-3.89,1.54.04,3.06-.23,4.58-.43,3.46-.46,7.71-.93,11.03-1.73,3.01-.73,2.42-2.12,2.53-4.18.24-4.45.14-8.88.1-13.34-.01-1.24.2-3.03.01-4.18-.07-.41-1.23-1.08-1.62-1.39,0-.08,1.37-.6,1.57-.78.49-.43.16-1.11.15-1.59ZM19.12,2.36c0-.3,1.28-.65,1.42-.58l.56.86c.14.07.32.57.5.5.32-.12.3-1.65.97-2,.67-.36,3.05-.34,3.9-.29.49.03,2.89.37,3.17.59.2.16.14,1.72.13,2.07,0,.19-.1.37-.11.57-.01.38.09,2.52-.09,2.63l-10.53.03c-.32-.22.15-3.78.09-4.37ZM26.11,49.8l-7.53-.09-.15-.12c-.26-1.48-.03-2.98.04-4.46.18-.11,1.51-.13,1.62,0,.1.79,0,1.63.15,2.42.08.43.65.55.67.16.02-.42-.1-.92-.07-1.38.02-.34.11-.83.21-1.14.27-.19,2.12-.14,2.58-.12.53.02,1.62.08,2.11.18.15.03.27.09.38.19v4.38ZM27.02,49.72l-.2-4.34c.63-.03,1.34-.01,1.81.38l.22,3.96h-1.82ZM47.03,32.85c-.18.14-2.15.11-2.59.24-.02.18-.03.22.17.31.54.23,2.28.07,2.44.48-.06,1.24.15,2.61.02,3.84-.03.31-.03.57-.45.62-1.4.14-2.97-.13-4.44.1-.3.05-.7.12-.58.39.2-.02.38.05.57.07,1,.12,2.19.12,3.23.18.3.02,1.4-.08,1.53.07.27,1.47-.38,1.97-2.02,2.31-4.72.96-10.91,2.09-15.71,2.03-4.98-.06-10.04.27-14.97-.43-3.35-.48-7.7-1.15-10.94-1.88-.65-.15-1.59-.38-1.95-.88-.04-.06-.26-.58-.26-.61v-1.84c.84-.2,1.69.01,2.48,0,.26,0,.48-.08.71-.09.49-.02,1.14.13,1.47-.21-.14-.13-.37-.17-.56-.2-.67-.07-1.53-.12-2.22-.17-.62-.04-1.39.15-1.87-.21v-9.78c.86,0,1.72-.12,2.58-.17,5.47-.29,10.97-.12,16.42-.08,6.1.05,12.33.21,18.43.16,1.08,0,8.4-.23,8.65.1v2.73c.19.36.01.65,0,.98,0,.38.12,1.72-.14,1.93ZM12.62,17.02c-.03.37-.34,1.86-.15,2.09.13.16.52.06.71,0l.07-.41c.12-.16,2.08-.18,1.71.44l-.32.09c.03.61-.23,1.69.87,1.68.23,0,.56-.09.56-.29v-4.01c0-.17.55-.13.69-.03.07.26-.06.58.04.83.06.17.42.29.44.42.07.37-.2,1.13-.04,1.54.07.19.41.21.47.36.06.15-.04.4.06.52l.57.13.11,2.47c1.58.5,1.14-.93,1.3-1.71h1.21c.19.16.15,2.37.61,2.66l.58.16.03,1.55c-.02.08-2.22.13-.9.73l1.1.14c-.36.03-.38.08-.46.33-1.07-.05-2.18-.19-3.24,0l-3.79-.09v-1.35c.22-.27.8-.24,1-.5.18-.23.25-1.05-.16-1.17-.7-.16-.59.93-.94.72-.03-.12-.09-.24-.1-.37-.06-.56.33-2.81.08-3.05-.31-.29-.89-.04-1.02.32-.03.09-.17.63-.17.68v1.35c-.2.02-.17.02-.23-.1-.18-.34.11-.77-.35-.95-1.14.16-.87,2.01-.07,2.36.21.09.56.07.63.23l-.09,1.83h-3.14l-.41-10.4,2.23-.16c0,.51-.15.73.49.95ZM26.71,22.78c.03.33-.11.61-.1.94.01.45.11.78.53.26.85-1.06,1.21-2.45,2.56-3.25.04.5-.29,1-.37,1.51-.02.13-.12.2.07.29l.76-.9.21.05c.08.1.12.6.35.52l1.41-1.31.46-.08c.07.58-1.98,1.56-2.03,1.68-.02.04-.03.21.06.21.51,0,1-.14,1.52-.08.14.02.18-.05.15.12-.58.75-1.4,1.33-2.33,1.8-.02.26,2-.01,2.23-.04,0,.16-.9.52-.71.65l1.42-.25v1.88h-10.23c-.08-.25.26-.13.41-.28.51-.49-.92-.52-.92-.58l.55-.21,2.74-3.02-.05,1.06c.27.15,1.11-1.17,1.32-.98ZM27.02,22.21c-.14,0-.19-.02-.31.06-.31.22-.58.72-.96.93-.08-1.35,1.42-2.18,2.48-3.03.76,1.41-.7,2.28-1.22,3.52-.17.02-.11-.2-.1-.29.03-.39.18-.78.1-1.18ZM34.87,21.8l1.36,1.48-1.52-.16c-.28.23,1.5,1.91,1.72,2.21-.92.12-1.66-.23-2.53-.32-.2.62-.09,1.25,0,1.88h-.65c-.13-.04-.14-.11-.17-.2-.07-.32.12-1.9,0-2.01l-1.01.25.61-.65-1.92.16c.74-.55,1.5-1.09,1.91-1.86.04-.37-1.16-.11-1.4-.11.65-.54,1.57-1.05,1.62-1.88-.11-.09-.95.23-.81-.04.05-.1.87-.74,1.06-.95.33-.37.62-.8.82-1.22l1.87,2.62-1.32-.08.36.9ZM31.58,20.74h.19s.01.12.01.12l-1.06.94-.25-.65c-.46-.09-.38.36-.71.49.21-.52.23-1.12.66-1.56l3.14-2.54c.17.12.25.27.26.45.05.83-1.68,2.07-2.23,2.74ZM13.72,24.64c-.1-.27-.45-.18-.68-.27-.73-.27-.71-2.02-.16-1.92.36.06-.14,1.26.59,1.05.56-.16.33-1.26.38-1.66.03-.28.17-1.06.66-.78l-.04,3.39c.07.17.42.18.59.09.25-.12.23-.78.61-.66l-.05.78-.86.28s-.2.37-.2.41v1.27h-.81c.06-.67.05-1.32-.02-1.99ZM47.59,16.77c-.02.29-.12,1.24-.23,1.45-.19.37-2.52.58-2.52,1.08,0,.29,2.31,1.26,2.49,1.6.11.2.09,1.24-.05,1.41-.35.37-4.07-.18-4.06.18,0,.1.16.25.25.29.69.32,3.48.02,3.66.24.25,1.25.11,2.52.1,3.78l-13.02.08c-.02-.24-.27-1.61.05-1.63.35.25,2.61.51,2.69.2l-1.72-1.96c.25-.09,1.73.2,1.72-.08-.78-.66-1.59-1.32-2.02-2.17h1.52c-.06-.33-.43-.54-.65-.83-.82-1.05-1.51-2.14-2.14-3.27l-4.86,3.93c-.3-.58-.03-1.54-1.06-.86-2,1.33-3.45,3.59-5.12,5.2-.14,0-.23-.94-.25-1.12-.01-.17.11-.34.08-.46-.09-.32-.73-.18-.79-.22-.12-.09-.19-2.36-.61-2.66h-1.53s-.29,1.71-.29,1.71l-.62.05v-2.42c0-.13-.58-.19-.6-.21-.05-.05.03-.42-.1-.59-.09-.12-.36-.1-.4-.15-.11-.14.06-1.35-.01-1.67-.05-.22-.33-.2-.39-.34-.26-.61.47-1.21-1.22-1l-.2,4.3c-.73.23-.84-.75-.72-1.14.03-.09.26-.06.31-.26.06-.25-.06-.53-.12-.77h-2.05s-.37.48-.37.48c-.14-.38.32-2.01.08-2.19-.1-.07-.33-.07-.37-.11-.11-.13.18-.68-.29-.79-.21-.05-2.04.13-2.24.21-.14.05-.2.1-.23.23-.07.32-.02,1.03,0,1.4l.31,8.96-8.82.25.26-7.29c.35-.39,4.37-.17,5.17-.24.37-.03.56-.27.15-.37-.37-.09-1.16-.15-1.59-.19-1.22-.11-2.46-.16-3.68-.18v-1.43c0-.42,3.21-1.83,3.62-2.29.01-.14-.53-.46-.7-.57-.63-.41-2.34-1.16-2.73-1.56-.27-.28-.24-.85-.15-1.19.2-.13.46-.15.71-.16,2.09-.14,4.28.19,6.39,0,.81-.45-.49-.48-.91-.57H1.38c.01-.23-.02-.46,0-.7.17-1.92,1.58-1.98,3.6-2.09,8.46-.46,17.29-.52,25.73-.24,4.6.17,9.63.13,14.19.57,1.01.1,2.46.31,2.66,1.29.07.33.11,2.13-.17,2.28l-6.74.28c-.53.15-.14.34.23.39,1.95.28,4.13-.06,6.05.1.19.02.58.06.64.22-.04,1.26.1,2.59.02,3.84Z"/>
  <path class="st0" d="M18.66,28.43h-1.72c-.59.51.37.76.45,1.11.07.29.07,2.16,0,2.45-.12.49-1.29.79-1.57.29-.09-.16-.11-2.64-.05-2.9.06-.26.48-.35.51-.58.05-.1-.18-.36-.26-.36h-2.38c-.16.61.17.55.45.82.34.34.08,2.38.16,2.98.21,1.59,3.57,1.55,4.01.21.27-.82-.15-2.16.05-2.99.07-.31.92-.56.35-1.03Z"/>
  <path class="st0" d="M27.17,28.43c-.83-.08-2.06,0-2.94,0-.07,0-.14.14-.16.21-.07.38.35.41.46.61.1.17.1,3.02,0,3.19-.11.2-.53.23-.46.61.04.56,2.34.41,2.51.27.54-.44-.33-.69-.44-.96-.1-.26-.03-.56-.05-.82,1.56.14,2.7-.51,2.54-1.85-.07-.59-.75-1.19-1.47-1.26ZM26.11,30.72v-1.43c0-.19.85-.22.99.26.18.64,0,1.34-.99,1.17Z"/>
  <path class="st0" d="M12.33,30.6c-.29-.21-2.06-.98-1.22-1.39.9-.44.94,1.29,2.03.78v-1.35c0-.47-.75-.14-.86-.13-.18.01-.49-.13-.72-.15-1.34-.11-2.28.54-2.06,1.66.16.82,2.47,1.5,2.4,2.12-.74,1.11-1.49-.61-2-.73-.7-.16-.55,1.16-.51,1.48.1.93.64.36,1.17.36.7,0,.91.37,1.9-.02,1.68-.66.97-1.87-.13-2.64Z"/>
  <path class="st0" d="M19.77,28.43c-.27.02-.49.02-.55.29.04.36.59.47.61.82.01.18-.11.37-.11.57-.02.71.16,1.61,0,2.29-.06.27-.78.53-.25.94h2.13s.21-.16.24-.22c.16-.43-.35-.47-.46-.74-.04-.1-.16-.79-.12-.83,1.23-.08,2.5-.25,2.62-1.45.18-1.77-2.55-1.8-4.1-1.67ZM21.34,30.72c.1-.32-.42-1.64.33-1.55.05,0,.54.23.56.25.26.35-.07,1.52-.89,1.29Z"/>
  <path class="st0" d="M20.4,34.26c-.85.12-1.7.88-1.8,1.58-.41,3.06,5.07,3.04,5.07.57,0-1.69-1.27-2.42-3.28-2.15ZM21.62,37.41c-.21.14-.69.15-.92.03-.53-.28-.83-3.03.84-2.42.62.22.55,2.07.07,2.39Z"/>
  <path class="st0" d="M35.85,28.53c-.27.35.23.52.27.58.13.16-.58,1.28-.69,1.21.01-.32-.45-.71-.49-.96-.05-.25.5-.68.09-.88-.17-.08-2.22-.07-2.34.01-.56.39.4.77.66,1.02.23.22,1.05,1.35,1.15,1.61.1.26.18.93.1,1.19-.1.35-.54.36-.59.59-.05.14.1.41.26.45h2.13c.57-.5-.25-.66-.34-.87-.06-.17-.05-1.09,0-1.28.03-.11,1.28-1.87,1.39-1.96.18-.15.74-.19.47-.63-.17-.27-1.97-.19-2.07-.07Z"/>
  <path class="st0" d="M16.32,34.25c-.38-.04-2.76-.05-2.98.03-.14.06-.22.2-.21.32l.51.49c.05.22.03,2.24-.05,2.33-.08.1-.62.23-.31.58.23.26,2.14.08,2.58.06l.07-.31c-.58-.28-.76-.38-.67-.98.85,0,2.13-.06,2.55-.76.59-.97-.35-1.66-1.5-1.77ZM15.21,36.05l-.04-1.07c1.69-.3,1.58,1.44.04,1.07Z"/>
  <path class="st0" d="M29.45,29.22c-.13.96.16,2.17,0,3.1-.06.38-.35.28-.45.47-.12.22-.02.51.29.55.32.05,3.28.04,3.53-.02.43-.1.37-1.63.07-1.75-.48-.19-.65.71-.91.82-.24.11-.64.01-.91.04v-3.23c0-.06.55-.25.39-.64l-.14-.14h-2.13s-.21.16-.23.22c-.19.51.45.44.49.57Z"/>
  <path class="st0" d="M27.66,36.06c-.3-.15-2.43-.67-1.6-1.15.78-.46,1.18.92,1.97.61.16-.09.16-1.06-.05-1.2-.29-.19-.5.11-.81.09-.17,0-.33-.14-.52-.16-1.08-.1-2.29.02-2.28,1.1.01,1.21,1.81.99,2.52,1.81-.05.54-.94.4-1.31.16-.2-.13-.36-.48-.53-.59-.09-.06-.19-.09-.31-.09-.59.02-.49,1.43-.1,1.52.38.08.44-.2.6-.22.1-.02.56.2.81.23.62.07,1.57,0,2.02-.4.63-.55.31-1.35-.42-1.71Z"/>
  <path class="st0" d="M31.12,34.33c-.24,0-.47-.09-.71-.09-.43,0-.85.16-1.31.08-.19.04-.46,1.69.55,1.28.32-.13.17-.8.91-.62v2.42c0,.06-.39.18-.46.29l.06.41h2.28c.48,0-.24-.72-.26-.86-.11-.66.04-1.5,0-2.17l.51.04.19.5c.97.23.73-.7.67-1.2-.12-.14-2.07-.07-2.44-.07Z"/>
  <path class="st0" d="M24.42,17.7c4.5-.42,3.51-6.11-1.08-5.62-4.56.48-3.66,6.06,1.08,5.62ZM23.24,12.32c4.79-.57,5.22,5.43.37,5.14-3.77-.22-4.01-4.71-.37-5.14Z"/>
  <path class="st0" d="M19.37,15.5c.1-.14.1-.59-.05-.7-.15-.1-2.22-.32-2.65-.39-1.2-.21-2.38-.51-3.58-.72-.09,0-.17.02-.25.05-.12.04-1.73,1.34-1.83,1.47-.08.1-.13.16-.1.29,2.21.15,4.43.04,6.64.08.39,0,1.58.26,1.82-.08ZM11.41,15.25c-.03-.25.34-.3.51-.45.29-.25.72-.84,1.16-.87,2.03.39,4.04.81,6.12,1,.03.19.1.55-.24.57l-7.55-.25Z"/>
  <path class="st0" d="M34.06,15.17l-5.57-.08c-.33,0-.55.96-.44,1.06l5.6.89c.22-.04.8-1.59.62-1.79l-.21-.08ZM28.23,15.99l.25-.66.2-.08,5.32.16-.47,1.31"/>
  <path class="st0" d="M28.35,14.75l5.76-.94.2-.23-1.03-1.34-.38-.07-4.66,1.64c-.22.2.05.68.12.93ZM28.5,13.93l4.46-1.54c.22-.02.91,1,1.04,1.22l-5.41.98c-.12,0-.26-.57-.1-.66Z"/>
  <path class="st0" d="M27.86,13.35l5.03-1.79c.2-.23-1.38-1.55-1.66-1.77l-4.11,2.88.75.68ZM31.63,10.42l.91.98-4.51,1.69c-.26.06-.44-.21-.6-.35l3.71-2.64.49.31Z"/>
  <path class="st0" d="M22.36,18.28l-.1,3.93c.34,0,1.75.28,1.92.08-.44-1.27-.51-2.56-.62-3.87-.1-.25-.93-.09-1.2-.13ZM22.56,22.05c.01-.56-.02-1.12,0-1.68,0-.19.1-.37.11-.57.02-.47-.12-.91,0-1.36l.6.09.51,3.6-1.22-.08Z"/>
  <path class="st0" d="M24.71,11.46c.31-.67.61-1.36.94-2.02.15-.3.84-1.27.75-1.5-.04-.09-.13-.13-.25-.13l-2.47-.07-.21,3.63.1.17c.37.03.94.3,1.14-.07ZM23.77,10.54c.04-.89.06-1.77.1-2.66l2.33.08-1.74,3.43-.7-.02c-.25-.14,0-.63,0-.82Z"/>
  <path class="st0" d="M20.89,12.3l-3.12-2.77c-.35.1-1.86,1.28-1.75,1.46.55.19,4.28,2.01,4.51,1.93.19-.06.55-.43.36-.62ZM16.38,10.79c.14-.16,1.32-1.12,1.51-1.02.38.46.82.97,1.28,1.39.31.28,1.38,1,1.53,1.23.09.15-.05.21-.16.29l-4.25-1.68c-.04-.12.04-.14.1-.2Z"/>
  <path class="st0" d="M31.28,17.09c-.46-.1-3.37-.65-3.58-.6-.18.04-.68.61-.53.81l2.46,1.55c.85-.27,1.4-.99,2.05-1.51.04-.16-.27-.22-.4-.25ZM29.62,18.6l-2.18-1.44c.06-.15.24-.43.45-.44.89-.06,2.41.65,3.4.58-.49.49-.97.99-1.66,1.3Z"/>
  <path class="st0" d="M19.38,14.18c.3,0,.38-.52.33-.72l-4.09-1.81c-.35,0-1.04,1.08-1.16,1.36l.25.21,4.68.97ZM15.7,11.91c.15.02,1.76.87,2.09,1.01.55.24,1.12.48,1.73.61l-.11.4-4.75-.94c.19-.19.76-1.13,1.04-1.1Z"/>
  <path class="st0" d="M25.62,11.63c-.19.33.36.65.71.58l3.51-2.66c.06-.17-.08-.21-.2-.31-.23-.17-1.36-.77-1.65-.69-.29.08-1.91,2.74-2.38,3.08ZM28.1,8.79c.25-.06,1.47.57,1.41.73l-3.15,2.46c-.21.16-.44.04-.55-.14l2.28-3.05Z"/>
  <path class="st0" d="M21.29,11.49c.18.15.43.43.69.4l.76-.44-1.47-3.21-.26-.18-1.9,1.18c0,.14,1.91,2.02,2.18,2.25ZM22.45,11.3c.01.13-.43.36-.55.36-.21,0-2.11-2.1-2.47-2.35l.15-.19,1.47-.82"/>
  <path class="st0" d="M21,17.46l-2.16,2.33c.42.25,1.3,1.03,1.68.48.21-.62,1.07-1.49,1.19-2.07.08-.41-.33-.56-.71-.74ZM21.43,18.22c-.1.51-1.11,1.49-1.2,2.11-.24-.14-1.09-.41-1-.68l1.86-1.94c.22.17.39.24.34.51Z"/>
  <path class="st0" d="M24.17,18.33l.52,2.73c.19.13,1.39-.3,1.41-.53l-.98-2.41-.96.21ZM24.89,20.82l-.41-2.37h.6s.72,2.08.72,2.08l-.92.3Z"/>
  <path class="st0" d="M25.92,18.14c.08.45,1.04,1.43,1.21,1.93.25.13,1.72-.57,1.72-.77l-1.98-1.6c-.28-.19-1,.19-.95.44ZM27.12,18.24c.47.37.96.73,1.42,1.1-.3,0-.99.57-1.22.46-.09-.05-.99-1.38-1.06-1.52-.11-.22.06-.37.33-.39.32-.03.33.2.53.36Z"/>
  <path class="st0" d="M20.38,16.8c-.03-.14-.38-.57-.59-.55-.12,0-2.05.77-2.09.86.22.35.51,1.64,1.1,1.21.19-.36,1.65-1.2,1.58-1.51ZM18.71,18.12c-.21.13-.72-.82-.56-.99l1.68-.61.19.18c.1.3-1.22,1.07-1.31,1.42Z"/>
</svg>